<svg version="1.2" xmlns="http://www.w3.org/2000/svg" viewBox="0 0 139 139" width="100%" height="100%">
	<title>directional-arrows-couple-of-outlines-svgrepo-com-svg</title>
	<style>
		.s0 { fill: #000000 }
	</style>
	<path id="Layer" class="s0" d="m6.3 131.7c-5.1-5-7.3-12.2-5.9-19.2l4.5-83.6q-0.3-3.4 0.4-6.6 0-0.3 0.1-0.7c1-3.7 2.9-7.1 5.6-9.8 8.4-8.4 22-8.4 30.4 0 4.6 4.6 6.8 10.9 6.1 17.5q0 0.2 0 0.4l-3.1 33.5 56.9-56.9c8.4-8.4 22-8.4 30.4 0 8.4 8.4 8.4 22 0 30.4l-57.1 57.1 32.2-3q0.3 0 0.5 0c6.5-0.7 12.8 1.5 17.4 6.1 8.4 8.4 8.4 22 0 30.4-2.6 2.6-5.8 4.4-9.4 5.4q-0.7 0.3-1.4 0.4-3 0.6-6.2 0.3l-85.1 4.6q-0.5 0-0.9 0c-5.8 0-11.4-2.2-15.4-6.3z"/>
</svg>