<svg version="1.2" xmlns="http://www.w3.org/2000/svg" viewBox="0 0 139 139" width="100%" height="100%">
	<title>directional-arrows-couple-of-outlines-svgrepo-com-svg</title>
	<style>
		.s0 { fill: #000000 }
	</style>
	<path id="Layer" class="s0" d="m131.7 131.7c-5 5.1-12.2 7.3-19.2 5.9l-83.6-4.5q-3.4 0.3-6.6-0.4-0.3 0-0.7-0.1c-3.7-1-7.1-2.9-9.8-5.6-8.4-8.4-8.4-22 0-30.4 4.6-4.6 10.9-6.8 17.5-6.1q0.2 0 0.4 0l33.5 3.1-56.9-56.9c-8.4-8.4-8.4-22 0-30.4 8.4-8.4 22-8.4 30.4 0l57.1 57.1-3-32.3q0-0.2 0-0.4c-0.7-6.5 1.5-12.8 6.1-17.4 8.4-8.4 22-8.4 30.4 0 2.6 2.5 4.4 5.8 5.4 9.4q0.3 0.7 0.4 1.4 0.6 3 0.3 6.2l4.6 85.1q0 0.4 0 0.9c0 5.8-2.2 11.4-6.3 15.4z"/>
</svg>