<svg version="1.2" xmlns="http://www.w3.org/2000/svg" viewBox="0 0 162 178" width="100%" height="100%">
	<title>directional-arrows-couple-of-outlines-svgrepo-com-svg</title>
	<style>
		.s0 { fill: #000000 }
	</style>
	<path id="Layer" class="s0" d="m81.5 177.4c-7.2 0-13.8-3.5-17.8-9.5l-56-62.3q-2.6-2.1-4.3-4.9-0.2-0.3-0.4-0.6c-2-3.3-3-7.1-3-10.9 0-11.8 9.6-21.5 21.5-21.5 6.5 0 12.6 3 16.7 8.1q0.1 0.1 0.3 0.3l21.5 25.9v-80.5c0-11.9 9.6-21.5 21.5-21.5 11.8 0 21.5 9.6 21.5 21.5v80.7l20.6-24.9q0.2-0.1 0.3-0.3c4.1-5.1 10.2-8 16.7-8 11.9 0 21.5 9.6 21.5 21.5 0 3.7-1 7.3-2.8 10.5q-0.3 0.7-0.7 1.2-1.7 2.6-4.2 4.7l-56.9 63.4q-0.4 0.3-0.7 0.6c-4.1 4.1-9.6 6.5-15.3 6.5z"/>
</svg>