<svg version="1.2" xmlns="http://www.w3.org/2000/svg" viewBox="0 0 178 162" width="100%" height="100%">
	<title>directional-arrows-couple-of-outlines-svgrepo-com-svg</title>
	<style>
		.s0 { fill: #000000 }
	</style>
	<path id="Layer" class="s0" d="m-0.2 81.5c0-7.2 3.6-13.8 9.5-17.8l62.3-56q2.2-2.6 4.9-4.3 0.3-0.2 0.6-0.4c3.3-1.9 7.1-3 10.9-3 11.9 0 21.5 9.6 21.5 21.5 0 6.5-2.9 12.6-8.1 16.7q-0.1 0.1-0.2 0.3l-25.9 21.5h80.4c11.9 0 21.5 9.6 21.5 21.5 0 11.8-9.6 21.5-21.5 21.5h-80.7l24.9 20.7q0.2 0.1 0.3 0.2c5.1 4.1 8 10.2 8 16.7 0 11.9-9.6 21.5-21.5 21.5-3.6 0-7.2-1-10.5-2.8q-0.6-0.3-1.2-0.7-2.6-1.7-4.7-4.2l-63.3-56.9q-0.4-0.4-0.7-0.7c-4.1-4.1-6.5-9.6-6.5-15.3z"/>
</svg>