<svg version="1.2" xmlns="http://www.w3.org/2000/svg" viewBox="0 0 178 162" width="100%" height="100%">
	<title>directional-arrows-couple-of-outlines-svgrepo-com-svg</title>
	<style>
		.s0 { fill: #000000 }
	</style>
	<path id="Layer" class="s0" d="m177.2 80.6c0 7.2-3.5 13.8-9.4 17.8l-62.3 56q-2.2 2.6-4.9 4.3-0.3 0.2-0.6 0.4c-3.4 2-7.1 3-10.9 3-11.9 0-21.5-9.6-21.5-21.5 0-6.5 2.9-12.6 8-16.7q0.2-0.1 0.3-0.3l25.9-21.5h-80.5c-11.8 0-21.5-9.6-21.5-21.5 0-11.8 9.7-21.5 21.5-21.5h80.8l-24.9-20.6q-0.2-0.2-0.3-0.3c-5.1-4.1-8.1-10.2-8.1-16.7 0-11.9 9.7-21.5 21.5-21.5 3.7 0 7.3 1 10.6 2.8q0.6 0.3 1.2 0.7 2.6 1.7 4.7 4.2l63.3 56.9q0.4 0.4 0.6 0.7c4.2 4.1 6.5 9.6 6.5 15.3z"/>
</svg>