<svg version="1.2" xmlns="http://www.w3.org/2000/svg" viewBox="0 0 162 178" width="100%" height="100%">
	<title>directional-arrows-couple-of-outlines-svgrepo-com-svg</title>
	<style>
		.s0 { fill: #000000 }
	</style>
	<path id="Layer" class="s0" d="m80.6 0c7.2 0 13.8 3.5 17.8 9.4l56 62.3q2.6 2.2 4.3 5 0.2 0.2 0.4 0.5c2 3.4 3 7.2 3 11 0 11.8-9.6 21.5-21.5 21.5-6.5 0-12.6-3-16.7-8.1q-0.1-0.1-0.3-0.3l-21.5-25.9v80.5c0 11.8-9.6 21.5-21.5 21.5-11.8 0-21.5-9.7-21.5-21.5v-80.7l-20.6 24.8q-0.2 0.2-0.3 0.4c-4.1 5.1-10.2 8-16.7 8-11.9 0-21.5-9.7-21.5-21.5 0-3.7 1-7.3 2.8-10.6q0.3-0.6 0.7-1.1 1.7-2.7 4.2-4.7l56.9-63.4q0.4-0.3 0.7-0.6c4.1-4.2 9.6-6.5 15.3-6.5z"/>
</svg>