<svg version="1.2" xmlns="http://www.w3.org/2000/svg" viewBox="0 0 139 139" width="100%" height="100%">
	<title>directional-arrows-couple-of-outlines-svgrepo-com-svg</title>
	<style>
		.s0 { fill: #000000 }
	</style>
	<path id="Layer" class="s0" d="m5.8 6.3c5.1-5 12.2-7.2 19.2-5.9l83.7 4.5q3.3-0.3 6.5 0.4 0.4 0.1 0.7 0.2c3.8 0.9 7.2 2.9 9.8 5.6 8.4 8.3 8.4 22 0.1 30.4-4.7 4.6-11 6.8-17.6 6.1q-0.1 0-0.3 0l-33.6-3.1 56.9 56.9c8.4 8.3 8.4 22 0 30.4-8.3 8.3-22 8.3-30.4 0l-57-57.1 2.9 32.2q0 0.2 0.1 0.4c0.7 6.5-1.6 12.9-6.2 17.5-8.3 8.4-22 8.4-30.4 0-2.6-2.6-4.4-5.9-5.4-9.5q-0.3-0.6-0.4-1.3-0.6-3.1-0.3-6.3l-4.6-85q0-0.5 0.1-1c-0.1-5.8 2.2-11.3 6.2-15.4z"/>
</svg>