<svg version="1.2" xmlns="http://www.w3.org/2000/svg" viewBox="0 0 139 139" width="100%" height="100%">
	<title>directional-arrows-couple-of-outlines-svgrepo-com-svg</title>
	<style>
		.s0 { fill: #000000 }
	</style>
	<path id="Layer" class="s0" d="m130.7 6.8c5 5.1 7.2 12.2 5.9 19.2l-4.5 83.7q0.3 3.3-0.4 6.5-0.1 0.4-0.2 0.7c-0.9 3.8-2.9 7.2-5.6 9.8-8.3 8.4-22 8.4-30.4 0.1-4.6-4.7-6.8-11-6.1-17.6q0-0.1 0-0.3l3.1-33.6-56.9 56.9c-8.3 8.4-22 8.4-30.4 0-8.3-8.3-8.3-22 0-30.4l57.1-57-32.2 2.9q-0.2 0-0.4 0.1c-6.5 0.7-12.9-1.6-17.5-6.2-8.4-8.3-8.4-22 0-30.4 2.6-2.6 5.9-4.4 9.5-5.4q0.6-0.3 1.3-0.4 3.1-0.6 6.3-0.3l85-4.6q0.5 0 1 0.1c5.8-0.1 11.3 2.2 15.4 6.2z"/>
</svg>